<svg width="45" height="45" viewBox="0 0 45 45" fill="none" xmlns="http://www.w3.org/2000/svg">
<g clip-path="url(#clip0_1246_4913)">
<path d="M11.5709 6.20119C9.01465 6.88614 7.49765 9.51368 8.1826 12.0699L8.8027 14.3842C9.48766 16.9405 12.1152 18.4575 14.6715 17.7725C17.2277 17.0876 18.7447 14.4601 18.0598 11.9038L17.4397 9.58952C16.7547 7.03325 14.1272 5.51624 11.5709 6.20119Z" fill="#FFE4B5"/>
<path d="M23.1432 3.09963C20.5869 3.78458 19.0699 6.41211 19.7549 8.96839L20.375 11.2827C21.0599 13.8389 23.6875 15.3559 26.2437 14.671C28.8001 13.986 30.317 11.3585 29.6321 8.80223L29.0119 6.48796C28.327 3.93169 25.6995 2.41466 23.1432 3.09963Z" fill="#FFE4B5"/>
<path d="M7.72913 19.6328C5.17286 20.3178 3.65585 22.9453 4.3408 25.5016L4.65085 26.6587C5.33581 29.215 7.96334 30.732 10.5196 30.0471C13.0759 29.3621 14.5929 26.7346 13.9079 24.1783L13.5979 23.0212C12.9129 20.4649 10.2854 18.9479 7.72913 19.6328Z" fill="#FFE4B5"/>
<path d="M33.1862 12.8106C30.6298 13.4955 29.1129 16.123 29.7978 18.6793L30.1079 19.8365C30.7928 22.3927 33.4203 23.9098 35.9766 23.2248C38.533 22.5398 40.0499 19.9123 39.365 17.356L39.0549 16.1989C38.37 13.6426 35.7425 12.1256 33.1862 12.8106Z" fill="#FFE4B5"/>
<path d="M27.0702 21.3423C23.7121 18.9446 19.0006 20.2071 17.2913 23.9626L12.7357 33.9716C10.8496 38.1155 14.6356 42.5855 19.0334 41.4071C19.6618 41.2387 20.2423 40.9264 20.7291 40.4949L21.4499 39.8555C24.1663 37.4467 27.8583 36.4574 31.4152 37.1853L32.3592 37.3786C32.9963 37.509 33.6553 37.4892 34.2836 37.3208C38.6814 36.1424 39.7253 30.3783 36.02 27.7326L27.0702 21.3423Z" fill="#FFE4B5"/>
</g>
<defs>
<clipPath id="clip0_1246_4913">
<rect width="35.9386" height="35.9386" fill="white" transform="translate(0 9.30078) rotate(-15)"/>
</clipPath>
</defs>
</svg>
